HIERARCHY
ROOT hip
{
  OFFSET 0 0 0
  CHANNELS 6 Xposition Yposition Zposition Zrotation Yrotation Xrotation
  JOINT abdomen
  {
    OFFSET 0 20.6881 -0.73152
    CHANNELS 3 Zrotation Xrotation Yrotation
    JOINT chest
    {
      OFFSET 0 11.7043 -0.48768
      CHANNELS 3 Zrotation Xrotation Yrotation
      JOINT neck
      {
        OFFSET 0 22.1894 -2.19456
        CHANNELS 3 Zrotation Xrotation Yrotation
        JOINT head
        {
          OFFSET -0.24384 7.07133 1.2192
          CHANNELS 3 Zrotation Xrotation Yrotation
          JOINT leftEye
          {
            OFFSET 4.14528 8.04674 8.04672
            CHANNELS 3 Zrotation Xrotation Yrotation
            End Site
            {
              OFFSET 1 0 0
            }
          }
          JOINT rightEye
          {
            OFFSET -3.6576 8.04674 8.04672
            CHANNELS 3 Zrotation Xrotation Yrotation
            End Site
            {
              OFFSET 1 0 0
            }
          }
        }
      }
      JOINT rCollar
      {
        OFFSET -2.68224 19.2634 -4.8768
        CHANNELS 3 Zrotation Xrotation Yrotation
        JOINT rShldr
        {
          OFFSET -8.77824 -1.95073 1.46304
          CHANNELS 3 Zrotation Xrotation Yrotation
          JOINT rForeArm
          {
            OFFSET -28.1742 -1.7115 0.48768
            CHANNELS 3 Zrotation Xrotation Yrotation
            JOINT rHand
            {
              OFFSET -22.5879 0.773209 7.07136
              CHANNELS 3 Zrotation Xrotation Yrotation
              JOINT rThumb1
              {
                OFFSET -1.2192 -0.487915 3.41376
                CHANNELS 3 Zrotation Xrotation Yrotation
                JOINT rThumb2
                {
                  OFFSET -3.37035 -0.52449 3.41376
                  CHANNELS 3 Zrotation Xrotation Yrotation
                  End Site
                  {
                    OFFSET -1.78271 -1.18214 1.43049
                  }
                }
              }
              JOINT rIndex1
              {
                OFFSET -7.75947 0.938293 5.60832
                CHANNELS 3 Zrotation Xrotation Yrotation
                JOINT rIndex2
                {
                  OFFSET -2.54057 -0.884171 1.56538
                  CHANNELS 3 Zrotation Xrotation Yrotation
                  End Site
                  {
                    OFFSET -1.62519 -0.234802 1.16502
                  }
                }
              }
              JOINT rMid1
              {
                OFFSET -8.24714 1.18213 3.41376
                CHANNELS 3 Zrotation Xrotation Yrotation
                JOINT rMid2
                {
                  OFFSET -3.10165 -0.590103 1.0647
                  CHANNELS 3 Zrotation Xrotation Yrotation
                  End Site
                  {
                    OFFSET -2.48547 -0.328903 0.83742
                  }
                }
              }
              JOINT rRing1
              {
                OFFSET -8.82822 0.546677 1.51678
                CHANNELS 3 Zrotation Xrotation Yrotation
                JOINT rRing2
                {
                  OFFSET -2.60934 -0.819778 -0.0198488
                  CHANNELS 3 Zrotation Xrotation Yrotation
                  End Site
                  {
                    OFFSET -2.33842 -0.294052 0.168128
                  }
                }
              }
              JOINT rPinky1
              {
                OFFSET -8.27202 -0.0477905 -0.4584
                CHANNELS 3 Zrotation Xrotation Yrotation
                JOINT rPinky2
                {
                  OFFSET -1.82734 -0.647385 -0.700984
                  CHANNELS 3 Zrotation Xrotation Yrotation
                  End Site
                  {
                    OFFSET -1.69225 -0.51767 -0.607171
                  }
                }
              }
            }
          }
        }
      }
      JOINT lCollar
      {
        OFFSET 2.68224 19.2634 -4.8768
        CHANNELS 3 Zrotation Xrotation Yrotation
        JOINT lShldr
        {
          OFFSET 8.77824 -1.95073 1.46304
          CHANNELS 3 Zrotation Xrotation Yrotation
          JOINT lForeArm
          {
            OFFSET 28.1742 -1.7115 0.48768
            CHANNELS 3 Zrotation Xrotation Yrotation
            JOINT lHand
            {
              OFFSET 22.5879 0.773209 7.07136
              CHANNELS 3 Zrotation Xrotation Yrotation
              JOINT lThumb1
              {
                OFFSET 1.2192 -0.487915 3.41376
                CHANNELS 3 Zrotation Xrotation Yrotation
                JOINT lThumb2
                {
                  OFFSET 3.37035 -0.52449 3.41376
                  CHANNELS 3 Zrotation Xrotation Yrotation
                  End Site
                  {
                    OFFSET 1.78271 -1.18214 1.43049
                  }
                }
              }
              JOINT lIndex1
              {
                OFFSET 7.75947 0.938293 5.60832
                CHANNELS 3 Zrotation Xrotation Yrotation
                JOINT lIndex2
                {
                  OFFSET 2.54057 -0.884171 1.56538
                  CHANNELS 3 Zrotation Xrotation Yrotation
                  End Site
                  {
                    OFFSET 1.62519 -0.234802 1.16502
                  }
                }
              }
              JOINT lMid1
              {
                OFFSET 8.24714 1.18213 3.41376
                CHANNELS 3 Zrotation Xrotation Yrotation
                JOINT lMid2
                {
                  OFFSET 3.10165 -0.590103 1.0647
                  CHANNELS 3 Zrotation Xrotation Yrotation
                  End Site
                  {
                    OFFSET 2.48547 -0.328903 0.83742
                  }
                }
              }
              JOINT lRing1
              {
                OFFSET 8.82822 0.546677 1.51678
                CHANNELS 3 Zrotation Xrotation Yrotation
                JOINT lRing2
                {
                  OFFSET 2.60934 -0.819778 -0.0198488
                  CHANNELS 3 Zrotation Xrotation Yrotation
                  End Site
                  {
                    OFFSET 2.33842 -0.294052 0.168128
                  }
                }
              }
              JOINT lPinky1
              {
                OFFSET 8.27202 -0.0477905 -0.4584
                CHANNELS 3 Zrotation Xrotation Yrotation
                JOINT lPinky2
                {
                  OFFSET 1.82734 -0.647385 -0.700984
                  CHANNELS 3 Zrotation Xrotation Yrotation
                  End Site
                  {
                    OFFSET 1.69225 -0.51767 -0.607171
                  }
                }
              }
            }
          }
        }
      }
    }
  }
  JOINT rButtock
  {
    OFFSET -8.77824 4.35084 1.2192
    CHANNELS 3 Zrotation Xrotation Yrotation
    JOINT rThigh
    {
      OFFSET 0 -1.70687 -2.19456
      CHANNELS 3 Zrotation Xrotation Yrotation
      JOINT rShin
      {
        OFFSET 0 -36.8199 0.73152
        CHANNELS 3 Zrotation Xrotation Yrotation
        JOINT rFoot
        {
          OFFSET 0.73152 -45.1104 -5.12064
          CHANNELS 3 Zrotation Xrotation Yrotation
          End Site
          {
            OFFSET -1.1221 -3.69964 12.103
          }
        }
      }
    }
  }
  JOINT lButtock
  {
    OFFSET 8.77824 4.35084 1.2192
    CHANNELS 3 Zrotation Xrotation Yrotation
    JOINT lThigh
    {
      OFFSET 0 -1.70687 -2.19456
      CHANNELS 3 Zrotation Xrotation Yrotation
      JOINT lShin
      {
        OFFSET 0 -36.8199 0.73152
        CHANNELS 3 Zrotation Xrotation Yrotation
        JOINT lFoot
        {
          OFFSET -0.73152 -45.1104 -5.12064
          CHANNELS 3 Zrotation Xrotation Yrotation
          End Site
          {
            OFFSET 1.1221 -3.69964 12.103
          }
        }
      }
    }
  }
}
MOTION
Frames:	4
Frame Time:	0.03333
31.353399999999997 77.6614 -64.2134 -177.849124 37.080928 167.539326 -10.104202 31.545895 4.965428 13.144755 -2.805595 -17.337976 -13.862426 16.390458 -55.894687 35.133308 -9.898082 56.263744 4.364734 0.001928 0.05059 23.626961 -3.266638 -15.526668 5.113768 -30.904429 12.500715 -122.560039 5.069247 -160.789299 -6.549911 28.250392 -140.833761 167.203228 -30.765912 134.97444 -179.569302 -10.822884 89.861545 -8.506723 -40.399198 4.636053 -159.199414 26.274713 115.125056 -150.598433 62.365086 66.577526 -20.625578 27.187965 19.649009 -3.227576 35.261901 10.994384 -165.258709 -6.420381 158.930521 -38.688703 20.510624 23.186932 -109.718735 -36.623871 -103.748859 54.171198 -7.096372 -0.617982 -16.799784 33.037873 15.488554 -78.456705 -18.906885 -74.176765 154.469734 -17.173696 -89.281672 -168.704519 -35.609834 -133.942543 93.949579 27.658344 -55.698622 -23.709237 -37.847994 -7.981246 95.319578 10.152049 -74.416551 -3.369988 46.982954 -38.026829 -11.317286 -25.210725 10.500195 162.13814 5.884284 -131.33398 143.059473 -5.601289 175.086311 -96.083606 76.305319 74.997594 -5.896227 -43.987273 24.198824 -168.743579 -31.714603 -179.680561 -2.37738 -0.361328 3.044797 -89.04502 -72.641324 -89.088506 -148.998592 71.176837 126.793536 -115.51812 -37.531148 12.502344 -6.399771 4.363051 -0.0 6.74414 -28.829498 -166.220931 -26.959201 -60.381268 -166.8291 68.497972 -35.588322 -8.820293
33.9741 81.3128 -68.3303 -174.529849 34.543845 162.595039 -4.299335 39.837103 -8.314076 12.687065 -3.318505 -7.569696 -6.507814 7.273093 -3.773281 5.643717 -21.839166 1.952816 -1.798119 -0.144538 9.190719 13.375047 -1.76914 -15.003201 18.680551 -52.463416 16.669374 -124.22299 -19.887784 -142.646749 1.65663 13.056073 -146.66249 172.594855 -20.066496 136.737502 -91.718008 38.671364 43.265383 -100.765925 -13.795728 61.612218 31.891847 -78.567214 1.730049 1.247603 -69.344824 -87.280801 156.954238 -63.481098 127.694824 -103.330489 -76.450278 -135.825952 -12.024035 -8.281485 27.314023 110.740821 61.612641 -60.393921 -143.511084 14.740324 -138.359337 97.978894 28.499651 -46.398907 129.882044 -37.949229 163.437398 -97.2453 39.238721 83.748089 7.768152 48.658097 -73.044561 9.038047 4.837401 8.648816 9.157989 12.589121 -9.868615 -166.690467 -58.00138 -96.73641 13.681926 -2.278295 -34.370297 -42.096219 -2.560122 57.67747 35.21612 51.731953 -30.297851 50.808753 51.638439 -45.168541 144.060883 65.342651 -168.993678 48.105472 -43.461103 36.416092 157.561925 75.12356 117.749899 87.259043 4.999394 79.218797 -15.449916 -1.380895 0.0 -105.436765 -75.59606 172.866745 -96.488377 11.026411 90.001369 122.646753 -28.856492 -9.06961 9.651622 11.158873 -0.0 -6.956078 -23.456679 -2.907662 -2.335634 66.597831 149.529586 150.128305 54.550505 115.68069
37.295 83.7285 -72.176 -170.172569 29.572262 159.401081 1.192332 40.924907 166.732601 -12.731885 0.862019 175.556399 -9.004871 0.638164 -13.94347 10.61735 -9.266833 9.646502 -12.288923 -1.603022 14.808474 1.655322 -0.207253 -14.272065 -9.307665 3.354955 16.07936 -50.79366 80.398721 108.463675 9.912157 64.765078 -157.019479 175.847517 -10.002583 138.114952 -88.702741 40.868065 33.396562 11.578891 -25.918965 46.914779 11.137439 -68.489029 -35.103687 -29.988306 66.282023 68.259611 -149.618908 33.694549 132.456161 -54.774316 75.418558 7.339322 80.654942 -85.779204 75.236547 -42.220892 -14.920235 -43.161017 -138.182525 9.259469 -143.08222 -129.077282 37.289169 -109.532652 132.580102 -38.639153 165.277864 -81.891254 34.996589 79.266318 -143.141169 -54.112729 -44.583317 174.058418 4.7725 -138.435221 176.38129 -20.589516 -91.584672 55.228891 28.015436 -35.143058 -36.000987 -33.72953 -22.878516 21.340171 -21.167333 58.861213 160.889804 -10.13799 -132.996128 -89.883801 -77.336921 -71.072289 -61.120371 85.890147 44.528214 56.685048 46.342376 -8.744142 114.823142 36.771742 131.865406 -103.768522 42.520824 28.431711 0.19798 -0.853319 13.06269 -116.041311 -60.56719 -113.052653 -71.708442 69.134437 20.017941 100.017867 35.37325 -19.089424 -19.269595 18.51732 -26.973505 32.82221 -6.615986 79.872326 45.973022 40.364124 179.277599 98.866746 -21.346691 171.110926
41.347699999999996 85.1955 -75.8326 -167.738958 29.646847 157.946496 6.749733 45.735524 -4.648058 9.682142 -7.752882 -9.901543 -2.304811 13.683542 171.5621 -7.745767 20.841978 -177.230355 -21.83157 -2.176789 11.252209 -13.913354 1.965777 -16.007312 -110.89933 58.434781 109.335601 173.136211 -12.492462 128.291868 -146.318771 -50.325356 48.773554 161.748216 -37.684311 132.435613 -174.340261 21.403665 86.92902 36.552667 -72.934136 56.485234 -78.052328 60.467577 80.951374 -69.679138 77.433303 -13.902662 -23.076569 54.463024 12.947357 -164.821042 39.00159 91.637183 -2.840974 -56.240127 -4.75501 89.736285 78.232679 -95.187892 -121.086011 -12.877269 -142.884845 -87.744666 53.433502 -174.447687 82.169073 80.145049 -91.635591 -172.346196 28.215919 -121.767478 -136.841842 72.45306 68.774729 16.793356 24.643623 -3.835773 166.944369 -6.110451 -101.639209 100.778363 35.68557 -77.852394 -45.011806 -54.832178 -6.400551 19.790369 -1.021726 12.354354 5.396697 10.239098 -19.80015 3.604527 49.234207 -4.948576 146.630915 12.082065 154.44076 173.679544 9.902594 111.582655 108.378575 25.735614 135.64526 -1.990335 -40.437984 48.769089 -119.994475 70.594494 -61.434795 148.263374 -29.708703 -91.392941 -82.048109 -1.173231 -140.506367 -148.354796 2.152371 134.283505 0.335767 0.748695 -24.155612 8.375956 2.811194 -180.0 28.201898 -41.408718 178.343216 128.426409 35.947904 -43.013639
